# xmcd CD database file
#
# Track frame offsets:
#	150
#	17853
#	32968
#	51286
#	64311
#	83070
#	100197
#	116699
#	130239
#	136579
#	149931
#	164333
#	185496
#	197702
#	210905
#
# Disc length: 3115 seconds
#
# Revision: 0
# Processed by: cddbd v1.5.2PL0 Copyright (c) Steve Scherf et al.
# Submitted via: CDex 1.51
#
DISCID=dd0c290f
DTITLE=Laykay LeFae - "R&P" Rhythm and Poetry
DYEAR=2009
DGENRE=Rhythmic Soul
TTITLE0=The Race
TTITLE1=Beautiful 2 Me
TTITLE2=Find A Way
TTITLE3=Love Is Off the Chain F. Amerie
TTITLE4=The Remedy
TTITLE5=Too Bad
TTITLE6=Heart Break Kid F. Catastro
TTITLE7=My Cherie Amour
TTITLE8=Kitchen Casket
TTITLE9=Rain
TTITLE10=Star
TTITLE11=Painful Memories (The Story Of Victoria Michelle Johnson)
TTITLE12=Homecoming F. Jay Lew
TTITLE13=If U Were My Woman
TTITLE14=Livin' Life (It's Okay)
EXTD=YEAR: 2009
EXTT0=
EXTT1=
EXTT2=
EXTT3=
EXTT4=
EXTT5=
EXTT6=
EXTT7=
EXTT8=
EXTT9=
EXTT10=
EXTT11=
EXTT12=
EXTT13=
EXTT14=
PLAYORDER=
